<svg width="36" height="36" viewBox="0 0 36 36" fill="none" xmlns="http://www.w3.org/2000/svg">
<path d="M18 18H17.25C17.25 18.3228 17.4566 18.6094 17.7628 18.7115L18 18ZM18.75 10.5C18.75 10.0858 18.4142 9.75 18 9.75C17.5858 9.75 17.25 10.0858 17.25 10.5H18.75ZM22.2628 20.2115C22.6558 20.3425 23.0805 20.1301 23.2115 19.7372C23.3425 19.3442 23.1301 18.9195 22.7372 18.7885L22.2628 20.2115ZM18.75 18V10.5H17.25V18H18.75ZM17.7628 18.7115L22.2628 20.2115L22.7372 18.7885L18.2372 17.2885L17.7628 18.7115ZM32.25 18C32.25 25.8701 25.8701 32.25 18 32.25V33.75C26.6985 33.75 33.75 26.6985 33.75 18H32.25ZM18 32.25C10.1299 32.25 3.75 25.8701 3.75 18H2.25C2.25 26.6985 9.30151 33.75 18 33.75V32.25ZM3.75 18C3.75 10.1299 10.1299 3.75 18 3.75V2.25C9.30151 2.25 2.25 9.30151 2.25 18H3.75ZM18 3.75C25.8701 3.75 32.25 10.1299 32.25 18H33.75C33.75 9.30151 26.6985 2.25 18 2.25V3.75Z" fill="#28303F"/>
</svg>
