<svg width="36" height="37" viewBox="0 0 36 37" fill="none" xmlns="http://www.w3.org/2000/svg">
<path d="M28.5 32.375V7.70833C28.5 6.00546 27.1569 4.625 25.5 4.625H10.5C8.84315 4.625 7.5 6.00546 7.5 7.70833V32.375M28.5 32.375L31.5 32.375M28.5 32.375H21M7.5 32.375L4.5 32.375M7.5 32.375H15M13.5 10.7916H15M13.5 16.9583H15M21 10.7916H22.5M21 16.9583H22.5M15 32.375V24.6666C15 23.8152 15.6716 23.125 16.5 23.125H19.5C20.3284 23.125 21 23.8152 21 24.6666V32.375M15 32.375H21" stroke="#111B29" stroke-width="2" stroke-linecap="round" stroke-linejoin="round"/>
</svg>
