<svg width="25" height="25" viewBox="0 0 36 36" fill="none" xmlns="http://www.w3.org/2000/svg">
<path fill-rule="evenodd" clip-rule="evenodd" d="M18 0C22.2667 0 26.1867 1.48453 29.2716 3.96526L28.2471 5.19467C25.4399 2.94535 21.877 1.6 18 1.6C8.94253 1.6 1.6 8.94253 1.6 18C1.6 27.0575 8.94253 34.4 18 34.4C27.0575 34.4 34.4 27.0575 34.4 18C34.4 14.5651 33.344 11.3769 31.539 8.74222L32.5997 7.46933C34.7392 10.4303 36 14.0679 36 18C36 27.9411 27.9411 36 18 36C8.05887 36 0 27.9411 0 18C0 8.05887 8.05887 0 18 0ZM34.8146 2.31226C35.0974 1.97284 35.0516 1.46838 34.7121 1.18553C34.3727 0.902682 33.8683 0.948541 33.5854 1.28796L16.2126 22.1353L9.62469 13.9004C9.34869 13.5553 8.84525 13.4994 8.50024 13.7754C8.15523 14.0514 8.0993 14.5549 8.37531 14.8999L15.5753 23.8999L16.1874 24.6649L16.8146 23.9123L34.8146 2.31226Z" fill="#111B29"/>
</svg>
