<svg width="36" height="40" viewBox="0 0 36 40" fill="none" xmlns="http://www.w3.org/2000/svg">
<path d="M28.5 32.5715H7.5C5.84315 32.5715 4.5 31.1133 4.5 29.3144L4.5 9.77155C4.5 7.97268 5.84315 6.5144 7.5 6.5144L22.5 6.51441C24.1569 6.51441 25.5 7.97268 25.5 9.77155V11.4001M28.5 32.5715C26.8431 32.5715 25.5 31.1133 25.5 29.3144L25.5 11.4001M28.5 32.5715C30.1569 32.5715 31.5 31.1133 31.5 29.3144V14.6573C31.5 12.8584 30.1569 11.4001 28.5 11.4001L25.5 11.4001M19.5 6.5144L13.5 6.5144M10.5 26.0573H19.5M10.5 13.0287H19.5V19.543H10.5V13.0287Z" stroke="#111B29" stroke-width="2" stroke-linecap="round" stroke-linejoin="round"/>
</svg>
