<svg width="43" height="38" viewBox="0 0 43 38" fill="none" xmlns="http://www.w3.org/2000/svg">
<path d="M7.70557 29.9339H9.33877C10.3646 29.9339 11.1609 29.2302 11.1609 28.3237V26.3794C14.1304 26.5345 18.1796 26.6299 21.5 26.6299C24.8069 26.6299 28.8561 26.5345 31.8256 26.3794V28.3237C31.8256 29.2302 32.6219 29.9339 33.6612 29.9339H35.2809C36.3202 29.9339 37.1166 29.2302 37.1166 28.3237V25.1866C37.562 24.7214 37.805 24.1011 37.805 23.3378V21.2384C37.805 19.1391 37.3865 17.9582 36.1043 16.5269L34.903 15.1909C34.4036 13.0439 33.5128 10.7895 33.0404 9.90681C32.2845 8.4993 30.8268 7.66434 28.9641 7.43771C27.9788 7.31843 25.0903 7.25879 21.5 7.25879C17.9097 7.25879 15.0077 7.33036 14.0359 7.43771C12.1732 7.64049 10.702 8.4993 9.95965 9.90681C9.48724 10.7895 8.5964 13.0439 8.097 15.1909L6.89572 16.5269C5.61346 17.9582 5.19504 19.1391 5.19504 21.2384V23.3378C5.19504 24.1011 5.43799 24.7214 5.88341 25.1866V28.3237C5.88341 29.2302 6.67976 29.9339 7.70557 29.9339ZM21.5 24.6975C16.8704 24.6975 11.1204 24.5067 8.93384 24.2801C7.77306 24.1608 7.34114 23.636 7.34114 22.7294V21.1311C7.34114 19.5208 7.69207 18.7574 8.6369 17.6481L10.0946 15.9662C10.4321 14.3679 11.3094 11.8869 11.8628 10.8253C12.3217 9.97838 13.1856 9.48933 14.3598 9.35812C15.2912 9.25077 17.9232 9.15534 21.5 9.15534C25.0768 9.15534 27.7493 9.2627 28.6132 9.35812C29.828 9.48933 30.6648 9.9903 31.1237 10.8372C31.7041 11.8749 32.5544 14.344 32.8919 15.9662L34.3496 17.6481C35.3079 18.7574 35.6454 19.5208 35.6454 21.1311V22.7294C35.6454 23.636 35.2135 24.1608 34.0662 24.2801C31.8796 24.5067 26.1296 24.6975 21.5 24.6975ZM11.9303 14.7734C11.7953 15.2625 12.0383 15.4891 12.6187 15.4653C14.6028 15.3579 17.0998 15.2506 21.5 15.2506C25.9002 15.2506 28.3972 15.3579 30.3679 15.4653C30.9617 15.4891 31.1912 15.2625 31.0697 14.7734C30.7728 13.6283 30.2194 12.1254 29.828 11.529C29.45 10.9326 29.0181 10.6821 28.2218 10.5867C27.3039 10.4794 25.1038 10.3959 21.5 10.3959C17.8962 10.3959 15.6826 10.4794 14.7783 10.5867C13.9819 10.6821 13.5365 10.9326 13.1721 11.529C12.7806 12.1254 12.2272 13.6283 11.9303 14.7734ZM11.7278 23.1588C13.0236 23.1588 13.9954 22.3 13.9954 21.1669C13.9954 20.0218 13.0236 19.1629 11.7278 19.1629C10.4456 19.1629 9.47374 20.0218 9.47374 21.1669C9.47374 22.3 10.4456 23.1588 11.7278 23.1588ZM31.2587 23.1588C32.5544 23.1588 33.5263 22.3 33.5263 21.1669C33.5263 20.0218 32.5544 19.1629 31.2587 19.1629C29.9764 19.1629 29.0046 20.0218 29.0046 21.1669C29.0046 22.3 29.9764 23.1588 31.2587 23.1588ZM17.8557 22.6579H25.1443C26.1026 22.6579 26.7775 22.0615 26.7775 21.2146C26.7775 20.3677 26.1026 19.7713 25.1443 19.7713H17.8557C16.8839 19.7713 16.209 20.3677 16.209 21.2146C16.209 22.0615 16.8839 22.6579 17.8557 22.6579Z" fill="#28303F"/>
</svg>
