<svg width="39" height="38" viewBox="0 0 39 38" fill="none" xmlns="http://www.w3.org/2000/svg">
<path d="M6.35969 37.3425L17.0428 26.6678L11.5189 21.1443L0.835794 31.8267C-0.0408925 32.7034 -0.0408926 34.1463 0.835793 35.0229L3.15552 37.3425C4.03996 38.2192 5.49076 38.2192 6.35969 37.3425Z" fill="#FEFDFE"/>
<path d="M13.9007 21.3853L16.7945 24.2789L20.0918 20.9819C24.5838 24.1005 30.806 23.666 34.8092 19.663C39.3013 15.1713 39.3013 7.87123 34.8092 3.37172C30.3172 -1.12779 23.0167 -1.12003 18.5169 3.37172C14.5136 7.37473 14.0791 13.5965 17.1979 18.0882L13.9007 21.3853ZM20.7823 5.60596C24.0408 2.34769 29.3241 2.34769 32.5749 5.60596C35.8333 8.86422 35.8333 14.1473 32.5749 17.3978C29.3164 20.656 24.033 20.656 20.7823 17.3978C17.5238 14.1473 17.5238 8.86422 20.7823 5.60596Z" fill="#FEFDFE"/>
</svg>
